Patient4_TMGait_0pt4_01_left_13_EMG.mot
version=1
nRows=36
nColumns=33
inDegrees=no
endheader
time	1LAddLong	2LGlutMax	3LGlutMed	4LIliopsoas	5LSemiMemb	6LBicFemLong	7LRecFem	8LVastMed	9LVastLat	10LGasMed	11LTibAnt	12lTibPost	13LPeroneusLong	14LSol	15LExtDigLong	16LFlexDigLong	17RAddLong	18RGlutMax	19RGlutMed	20RIliopsoas	21RSemiMemb	22RBicFemLong	23RRecFem	24RVastMed	25RVastLat	26RGasMed	27RTibAnt	28RTibPost	29RPeroneusLong	30RSol	31RExtDigLong	32RFlexDigLong
16.01	0.009003	0.077667	0.003967	0.001831	-0.00946	-0.053253	-0.020752	0.010376	0.12558	-0.033264	-0.015717	0.004425	0.027008	-0.027313	0.007172	0.007477	-0.011902	-0.11566	-0.24033	0.007782	-0.10346	-0.010986	-0.057678	0.076904	0.051117	-0.001526	-0.08728	-0.00885	0.035858	0.10971	-0.004578	-0.019989
16.011	0.00946	0.073242	-0.051727	-0.009003	-0.009155	-0.057526	-0.033417	0.011902	0.11963	-0.07019	-0.001068	0.000763	0.0354	0.044098	0.006409	0.006409	0.007782	-0.13275	-0.33188	0.00885	-0.026855	-0.06012	0.011139	0.028076	0.070953	-0.017242	-0.24063	-0.018768	0.065765	-0.041046	-0.001678	-0.009308
16.012	0.004883	0.072174	-0.079346	-0.012512	-0.000763	-0.04303	0.004883	0.002441	0.11978	-0.018463	-0.028839	0.000458	0.023956	0.077209	0.004425	0.004883	0.018158	-0.17975	-0.34668	-0.015717	0.026245	-0.083466	0.095215	-0.017853	0.11536	-0.014191	-0.31036	-0.018768	0.066376	-0.51834	-0.002136	-0.014191
16.013	0.009918	0.062408	0.020752	-0.003967	0.004883	-0.048523	0.010071	0.000458	0.10834	-0.077057	-0.051727	0.00473	0.006256	0.066376	0.028229	0.005646	-0.011902	-0.17441	-0.14618	0.00946	0.033417	-0.008545	0.13901	-0.041504	0.13321	-0.019531	-0.28458	-0.004425	-0.006561	-0.6369	-0.000305	-0.020905
16.014	0.00473	0.065918	-0.04776	0.000916	0.013885	-0.031586	-0.011292	-0.004425	0.10269	-0.048218	-0.027161	0.002441	0.00824	0.035706	0.030823	0.013733	0.010376	-0.16815	-0.050201	0.018616	0.089417	0.050964	0.099182	-0.029602	0.088501	-0.016327	-0.11887	-0.003815	-0.022736	-0.40344	-0.000916	-0.018005
16.015	0.008545	0.063629	-0.10361	0.003052	0.010376	-0.011749	0.019684	0.010223	0.077515	-0.059509	-0.007629	0.005798	-0.012665	0.044403	0.004425	0.007629	0.017548	-0.23025	-0.10056	-0.013275	0.094604	0.12177	0.037537	-0.059052	0.068054	-0.009308	0.002136	-0.003662	-0.10101	-0.014343	-0.002136	-0.031433
16.016	0.002747	0.029755	-0.12695	0.001526	-0.020752	0.008087	0.011139	0.000305	0.069733	-0.092926	0.05188	-0.008698	0.04776	0.053253	-0.08194	0.025787	0.001221	-0.22171	-0.099792	-0.011597	0.07782	0.121	-0.11246	0.032043	0.071716	-0.010986	0.077972	-0.004425	-0.16846	0.14618	-0.002747	-0.022278
16.017	0.010376	0.043182	-0.093689	0.003662	0.00351	-0.004578	0.02182	0.003967	0.061646	-0.08606	0.075073	0.00061	0.071564	0.019226	-0.066833	0.002899	0.013275	-0.20157	-0.11139	-0.018311	0.039825	0.12024	-0.017242	-0.071869	0.020905	0.00351	0.04715	0.00473	-0.10986	0.51254	-0.002136	-0.010834
16.018	0.008392	0.055847	0.021667	0.019684	0.026398	0.009918	0.021057	0.003357	0.055847	-0.099182	0.066071	0.008545	0.039063	-0.038452	-0.06012	0.00061	0.016022	-0.18249	-0.04425	-0.047607	-0.14175	0.11475	0.068665	-0.094452	-0.052032	0.02655	-0.21393	0.011597	-0.01709	0.83389	-0.000763	-0.003204
16.019	0.000458	0.042572	0.20309	0.009308	0.016327	0.033875	0.020599	0.003815	0.067444	-0.086823	0.1059	-0.00061	0.074158	-0.047607	-0.031433	0.001068	0.014648	-0.11536	0.048828	-0.040131	-0.005493	-0.030823	0.20798	-0.12039	-0.13916	-0.02243	-0.049591	-0.011292	-0.098572	0.8168	0.000458	-0.005951
16.02	-0.002136	0.029755	0.078278	0.016632	0.008087	0.030823	0.028839	0.004883	0.050812	-0.031891	0.092926	0.001678	0.075226	-0.048065	0.049896	-0.002441	0.014038	-0.15045	0.17532	-0.044098	0.090942	-0.087433	0.18448	-0.094299	-0.09079	-0.068817	-0.040741	-0.009308	-0.002136	0.64117	-0.000916	-0.003967
16.021	-0.005188	0.033569	0.019226	0.007629	0.014801	0.028381	-0.00473	0.009766	0.065308	0.014496	0.088959	0.00824	0.060883	0.016327	0.067444	-0.008698	0.007019	-0.20371	0.01709	0.043793	0.069733	-0.081177	0.22903	-0.033417	-0.018768	-0.012054	-0.12131	-0.000763	0.1265	0.30197	-0.004578	-0.00885
16.022	-0.003662	0.019379	0.001068	0.005188	0.017548	0.041504	0.014954	0.003967	0.075684	0.023193	-0.038147	0.004272	0.066833	0.006866	0.029907	0.001678	0.00061	-0.15686	-0.096283	0.034943	0.055695	-0.098267	0.065613	-0.044403	0.038452	-0.01358	0.086365	-0.000763	0.063324	0.011902	-0.001526	-0.010834
16.023	-0.001984	0.049591	-0.062561	0.009613	0.027161	0.059967	0.013733	0.007782	0.068359	0.02533	-0.14862	0.00412	0.056763	-0.022736	0.005646	-0.002747	-0.007629	-0.12116	-0.21164	0.024109	0.087433	-0.16998	-0.17197	0.078583	0.098877	-0.016479	0.92712	-0.001526	-0.032349	-0.25742	-0.000763	-0.009155
16.024	0.00473	0.027924	-0.094452	0.004425	0.027466	0.073395	0.007172	0.007477	0.080261	0.025024	-0.10101	-0.003662	0.065765	-0.021667	-0.013885	0.002594	0.001831	-0.10544	-0.21744	0.039825	0.069275	-0.13153	-0.063782	0.08316	0.062256	-0.015259	0.29236	0.004425	-0.02594	-0.19348	-0.002594	-0.011139
16.025	-0.002594	0.021057	-0.099335	0.005798	0.010681	0.069885	0.015564	0.009003	0.078888	0.006409	0.024567	-0.001984	0.084076	-0.029907	0.17716	-0.005646	0.014496	-0.10819	-0.043335	0.039825	0.03952	-0.11627	0.067902	-0.023193	0.015411	0.019073	-0.11002	0.024414	-0.045013	-0.022583	-0.003815	-0.02243
16.026	-0.009308	0.011444	-0.040131	-0.001678	-0.032349	0.017853	0.008698	0.010071	0.065765	-0.020752	-0.031281	0.001526	0.079041	-0.027466	0.005951	-0.003357	0.00473	-0.066376	0.027313	-0.01297	0.025024	-0.094757	0.072632	-0.09491	-0.03418	0.044098	0.22156	0.009308	-0.17029	0.029602	-0.005341	-0.021667
16.027	0.00061	0.015869	0.042419	-0.00824	-0.034027	-0.016785	-0.009613	0.007935	0.06073	-0.022583	0.020599	-0.001221	0.068665	-0.028381	-0.058441	0.002289	0.006104	-0.17349	-0.1506	0.004425	0.027618	-0.038147	-0.10284	-0.13443	-0.12543	-0.007019	0.15182	-0.02655	-0.12909	-0.14603	-0.003052	-0.021057
16.028	0.011902	0.012054	0.063019	-0.00473	0.004272	-0.024109	-0.026245	-0.000763	0.051575	-0.031128	0.009918	-0.006104	0.062714	-0.030518	-0.041962	-0.00061	0.014038	-0.31754	-0.3624	0.026245	0.010071	-0.03067	0.030212	-0.13886	-0.15152	-0.028992	-0.019684	-0.021667	-0.10788	-0.2478	0.002899	-0.014954
16.029	0.001984	0.022736	0.039978	0.006866	0.02533	0.000305	0.023041	-0.020752	0.044708	-0.04425	-0.003052	0.004425	0.002136	-0.033875	-0.032654	-0.003357	0.014191	-0.16708	-0.32288	0.001831	0.028229	-0.021515	0.09552	-0.052795	-0.13718	-0.013733	-0.22644	-0.006561	-0.063629	-0.20187	0.011292	-0.02243
16.03	0.006409	0.037231	-0.006104	0.00473	0.041199	0.030365	-0.008392	0.027313	0.036926	-0.041504	0.007935	0.002594	0.02182	-0.047302	-0.021973	-0.000305	0.014801	-0.11581	-0.52536	0.016479	0.013428	-0.033722	0.1648	-0.075989	-0.097046	-0.010834	0.41992	0.013428	-0.063019	-0.21927	-0.003052	-0.010681
16.031	0.010223	0.024719	-0.014496	0.003204	0.024109	0.035248	-0.003815	0.016022	0.03952	-0.03891	0.002136	-0.002594	0.035553	-0.013275	-0.005341	-0.005188	0.007629	-0.028229	-0.76797	0.003967	-0.003357	-0.005188	0.15213	0.026398	0.031128	-0.00061	0.9137	-0.005035	0.057068	-0.40985	-0.003052	-0.005798
16.032	-0.005035	0.050964	-0.023499	0.009308	0.008545	0.043793	-0.027618	0.004425	0.048218	-0.049133	0.022125	-0.004425	0.055695	0.006104	0.005646	0.002136	-0.00824	-0.045319	-0.9819	0.021362	-0.024109	0.045776	-0.14175	0.043945	0.13168	-0.011292	0.58044	-0.002594	-0.040283	-0.28946	-0.003967	-0.011597
16.033	-0.00473	0.024109	-0.041199	0.001678	0.015564	0.009918	-0.023193	0.001221	0.04425	-0.046387	0.003967	0.006256	0.034637	-0.016022	0.010071	-0.001373	0.003815	0.042419	0.18585	-0.001221	-0.040283	0.04364	-0.029602	0.049286	0.1445	-0.015106	0.4097	-0.00885	-0.001373	-0.17685	-0.003052	-0.015411
16.034	0.017548	0.019073	-0.029297	0.010376	0.02182	0.005951	-0.034637	0.002136	0.034027	-0.12116	0.010986	-0.000305	0.039673	0.005798	0.014648	0.001984	0.018768	0.041504	0.96176	-0.08667	-0.06485	0.018311	0.02594	-0.035706	0.22415	-0.002594	-0.80444	0.000153	0.11169	-0.18021	-0.006104	-0.007477
16.035	0.007324	-0.024567	-0.034637	0.000763	0.000458	0.015106	-0.037842	0.004272	0.034943	-0.082245	0.029449	0.004425	0.068665	-0.019989	0.016937	0.011292	-0.006866	0.023193	0.35629	-0.10117	0.066071	0.016937	-0.21988	-0.046082	0.1712	-0.011292	-0.11322	0.001373	-0.11292	-0.1355	-0.003357	-0.014954
16.036	0.012665	-0.026855	0.021515	0.001526	0.016174	0.00061	-0.045319	0.000763	0.036011	-0.083618	0.022736	0.005646	0.059357	-0.02182	0.023193	-0.005035	-0.014343	-0.056915	0.17685	-0.078278	0.087585	-0.010223	-0.38681	-0.014801	0.14496	-0.0177	0.11932	-0.000458	-0.14267	-0.15457	-0.00473	-0.012665
16.037	0.010681	-0.020294	-0.016174	0.001373	-0.009003	0.00885	-0.029755	-0.001678	0.033112	-0.041962	0.013733	-0.000763	0.070648	-0.072937	0.009918	-0.003204	-0.025177	-0.011902	0.23392	0.021057	0.027771	-0.039825	-0.45456	-0.05249	0.10376	-0.012512	-0.48035	0.000153	0.078583	-0.31967	-0.003967	-0.014191
16.038	0.010529	-0.014038	-0.036774	-0.003052	-0.023651	-0.010071	-0.02533	0.002289	0.038605	-0.044556	0.015869	0.000458	0.048828	-0.1236	-0.005798	-0.001221	0.010376	0.025177	-0.26352	0.052795	0.008698	-0.093231	-0.27496	-0.02655	0.1329	0.009766	-1.1746	0.000153	0.1683	-0.26245	-0.004883	-0.009003
16.039	0.014954	0.015564	-0.013885	-0.00885	0.008545	-0.03067	-0.053253	-0.00061	0.037231	-0.014343	0.036011	-0.009308	0.032196	-0.097351	-0.017548	0.002747	0.040741	0.033722	-0.028687	0.007629	-0.033569	-0.13458	-0.11643	-0.079041	0.099945	-0.008545	-0.34851	-0.000458	0.019073	-0.22217	-0.001373	-0.014343
16.04	0.003357	-0.058136	-0.037689	0.013123	0.025177	-0.012054	-0.0383	0.003662	0.040894	-0.000916	0.052948	-0.002747	0.034485	-0.045319	-0.027161	0.00061	0.046082	-0.001984	-0.011597	0.027313	-0.086365	-0.11795	-0.084839	-0.029755	0.089264	-0.037079	0.36255	-0.002441	0.12695	-0.18997	-0.000916	-0.006866
16.041	0.00885	-0.10284	-0.15091	0.007019	0.029449	-0.007782	-0.072479	0.002899	0.03952	0.001526	0.022888	-0.000458	0.029907	0.000153	-0.029144	-0.001984	0.050049	-0.036926	-0.21088	0.047455	-0.087128	-0.083771	-0.065002	-0.11108	0.023193	-0.055847	0.27435	-0.001984	-0.029755	0.055847	-0.000458	-0.018921
16.042	0.005341	-0.079193	-0.0354	-0.017548	0.014496	0.00946	-0.06485	-0.002899	0.042419	-0.032043	-0.099945	-0.004578	0.080872	0.001373	-0.019684	-0.010529	0.032806	0.038147	-0.11597	0.0354	-0.26749	-0.001373	-0.15411	-0.086212	0.024261	-0.07843	0.048218	-0.001678	-0.13367	0.084534	-0.009766	-0.020905
16.043	0.005188	-0.072632	0.041962	-0.006409	0.025177	0.005035	-0.042419	0.000305	0.049133	-0.026093	-0.058136	-0.007629	0.032959	-0.033722	0.016022	-0.010681	0.004578	0.073395	-0.068512	0.044708	-0.15305	0.024261	-0.053406	0.010376	0.002136	-0.083008	-0.1651	-0.000763	-0.017395	0.095367	-0.003204	-0.020599
16.044	0.008392	-0.080719	0.012512	0.000763	0.022278	0.002747	-0.053406	0.006104	0.025177	-0.020294	-0.009613	-0.007324	0.027924	-0.097046	0.028534	-0.010834	-0.010681	0.065765	-0.18814	0.058441	0.10391	0.022888	-0.063324	0.001831	0.019684	-0.027313	-0.3717	-0.002747	0.019531	-0.11841	-0.000458	-0.013733
16.045	0.005493	-0.086823	-0.049438	0.017242	0.006866	0.011749	-0.042572	0.003204	0.04425	-0.034943	-0.003815	-0.007629	0.048218	-0.078583	0.028534	-0.004578	-0.002441	0.056763	-0.000458	0.045471	0.2475	0.011444	0.015869	-0.056915	0.020599	0.080719	-0.29694	-0.00473	-0.006256	-0.215	-0.001831	-0.005798
